IKResults
version=1
nRows=5
nColumns=63
inDegrees=yes

Units are S.I. units (second, meters, Newtons, ...)
If the header above contains a line with 'inDegrees', this indicates whether rotational values are in degrees (yes) or radians (no).

endheader
time	pelvis_tilt	pelvis_list	pelvis_rotation	pelvis_tx	pelvis_ty	pelvis_tz	hip_flexion_r	hip_adduction_r	hip_rotation_r	knee_angle_r	knee_angle_r_beta	ankle_angle_r	subtalar_angle_r	mtp_angle_r	hip_flexion_l	hip_adduction_l	hip_rotation_l	knee_angle_l	knee_angle_l_beta	ankle_angle_l	subtalar_angle_l	mtp_angle_l	L5_S1_Flex_Ext	L5_S1_Lat_Bending	L5_S1_axial_rotation	L4_L5_Flex_Ext	L4_L5_Lat_Bending	L4_L5_axial_rotation	L3_L4_Flex_Ext	L3_L4_Lat_Bending	L3_L4_axial_rotation	L2_L3_Flex_Ext	L2_L3_Lat_Bending	L2_L3_axial_rotation	L1_L2_Flex_Ext	L1_L2_Lat_Bending	L1_L2_axial_rotation	L1_T12_Flex_Ext	L1_T12_Lat_Bending	L1_T12_axial_rotation	Abs_r3	Abs_r2	Abs_r1	Abs_t1	Abs_t2	neck_flexion	neck_bending	neck_rotation	arm_flex_r	arm_add_r	arm_rot_r	elbow_flex_r	pro_sup_r	wrist_flex_r	wrist_dev_r	arm_flex_l	arm_add_l	arm_rot_l	elbow_flex_l	pro_sup_l	wrist_flex_l	wrist_dev_l
      2.03333333	    -62.57060694	      1.93263040	      3.14002786	     -1.13830624	      0.37433339	     -0.18839803	    149.80445994	     -1.15424651	     14.82531606	    119.95730309	      2.09364990	     46.80008055	    -15.03446061	      0.00000000	    149.47891909	    -16.80985144	      5.76122261	    119.94587497	      2.09345044	     38.78701955	    -19.32683290	      0.00000000	      0.05315026	     -1.13774288	     -0.11662235	      0.09870535	     -1.51319803	     -0.12391125	      0.08732056	     -2.76630803	     -0.12391125	      0.06074543	     -2.76630803	     -0.10204456	      0.04935533	     -2.32008527	     -0.09475566	      0.03037006	     -1.76236372	     -0.08746676	      0.37964700	    -12.87037496	     -0.64861852	      0.00000000	      0.00000000	     28.50739625	     -6.86525952	    -43.72258859	     29.73807039	    -14.61110361	    -15.65452052	     18.18004084	     89.99559364	      0.00000000	      0.00000000	     39.85675585	    -31.67285241	     37.37328504	     20.78830017	     89.99559364	      0.00000000	      0.00000000
      2.06666667	    -62.95751875	      1.96383673	      2.99454902	     -1.13649055	      0.37548683	     -0.18802072	    149.81923821	     -0.98549143	     14.72113502	    119.95686822	      2.09364231	     46.80079085	    -14.91395317	      0.00000000	    149.45632432	    -16.71051785	      6.15975918	    119.94372209	      2.09341287	     39.46362460	    -19.06309902	      0.00000000	      0.26536069	     -1.14388063	     -0.08108842	      0.49280134	     -1.52136123	     -0.08615644	      0.43596108	     -2.78123136	     -0.08615644	      0.30328073	     -2.78123136	     -0.07095236	      0.24641394	     -2.33260138	     -0.06588434	      0.15162710	     -1.77187109	     -0.06081631	      1.89544487	    -12.93980643	     -0.45098945	      0.00000000	      0.00000000	     28.50240776	     -6.40956108	    -43.43538556	     28.99568546	    -14.44894272	    -15.60936886	     18.08800574	     89.99559364	      0.00000000	      0.00000000	     38.92654495	    -31.78081835	     37.48663023	     20.82449210	     89.99559364	      0.00000000	      0.00000000
      2.10000000	    -63.41007071	      1.71869652	      2.56364575	     -1.13413320	      0.37695684	     -0.18693976	    149.82469838	     -0.88492920	     14.14716422	    119.95595475	      2.09362637	     46.82232567	    -14.72530926	      0.00000000	    149.50632914	    -16.49453787	      7.21259055	    119.94221589	      2.09338658	     40.46418566	    -18.30296778	      0.00000000	      0.51285429	     -1.11465713	      0.03051921	      0.95242171	     -1.48249398	      0.03242666	      0.84256832	     -2.71017734	      0.03242666	      0.58614117	     -2.71017734	      0.02670431	      0.47623650	     -2.27300881	      0.02479686	      0.29304494	     -1.72660389	      0.02288941	      3.66326694	    -12.60922435	      0.16973871	      0.00000000	      0.00000000	     28.49692712	     -5.88656925	    -42.86014251	     28.06242297	    -14.42493793	    -15.56032941	     18.04682366	     89.99559364	      0.00000000	      0.00000000	     37.91775170	    -31.80870557	     37.68064923	     20.94549108	     89.99559364	      0.00000000	      0.00000000
      2.13333333	    -63.98215967	      1.03721135	      2.15218633	     -1.13124737	      0.37848063	     -0.18589359	    149.82665826	     -1.14084849	     13.27391069	    119.95494994	      2.09360883	     46.95223687	    -14.87225324	      0.00000000	    149.58123821	    -16.01993459	      8.68464575	    119.94020341	      2.09335146	     42.51320921	    -15.85779247	      0.00000000	      0.80906794	     -1.02667701	      0.15414526	      1.50252008	     -1.36548042	      0.16377934	      1.32921772	     -2.49626248	      0.16377934	      0.92468375	     -2.49626248	      0.13487711	      0.75130049	     -2.09359976	      0.12524303	      0.46230142	     -1.59032269	      0.11560895	      5.77909140	    -11.61397566	      0.85730971	      0.00000000	      0.00000000	     28.48757717	     -5.31355255	    -41.73904775	     26.89456044	    -14.62207843	    -15.54042716	     18.08751946	     89.99559364	      0.00000000	      0.00000000	     36.78958892	    -31.60996058	     38.14430188	     20.90843407	     89.99559364	      0.00000000	      0.00000000
      2.16666667	    -64.67942308	      0.25993105	      1.75952062	     -1.12787329	      0.38009581	     -0.18484937	    149.82559416	     -1.51078449	     12.39871048	    119.95365137	      2.09358617	     47.32941113	    -14.79431340	      0.00000000	    149.65161113	    -15.69909742	     10.28178779	    119.93763546	      2.09330664	     45.17233440	    -11.86213080	      0.00000000	      1.15675046	     -0.91819202	      0.26952230	      2.14820128	     -1.22119538	      0.28636745	      1.90042533	     -2.23249207	      0.28636745	      1.32205010	     -2.23249207	      0.23583202	      1.07415848	     -1.87237716	      0.21898687	      0.66096721	     -1.42227944	      0.20214173	      8.26255286	    -10.38677175	      1.49900220	      0.00000000	      0.00000000	     28.47606126	     -4.41097149	    -39.64383491	     25.54037616	    -14.85729978	    -15.57663766	     18.17578469	     89.99559364	      0.00000000	      0.00000000	     35.45492259	    -31.43903595	     38.72750167	     20.89291369	     89.99559364	      0.00000000	      0.00000000
